<svg
        xmlns="http://www.w3.org/2000/svg"
        width="141.445"
        height="25mm"
        version="1.1"
        viewBox="0 0 37.424 25"
      >
        <path
          fill="#57433c"
          fillOpacity="1"
          fillRule="nonzero"
          stroke="none"
          strokeWidth="0.102"
          d="M6.824 14.799c1.545 1.346 5.598 3.312 8.252 2.564 2.637-.743 2.656-4.433 2.656-4.433H19.911s.02 3.69 2.656 4.433c2.655.748 6.707-1.218 8.252-2.564C34.271 11.79 36.732.773 36.732.773s.387 8.255-.1 11.242l-.224-.74c-.213 1.717-.589 3.147-1.626 4.337l-.134-.405a8.175 8.175 0 01-2.695 4.524l-.137-.697a9.126 9.126 0 01-4.35 3.692c-.014-.304-.025-.606-.038-.908a8.14 8.14 0 01-4.677 1.882c-.002-.166-.002-.333-.006-.498-1.719 1.35-3.923 1.35-3.923 1.35s-2.204 0-3.923-1.35c-.002.165-.002.332-.006.498a8.137 8.137 0 01-4.677-1.882c-.015.302-.026.604-.04.908a9.126 9.126 0 01-4.348-3.692l-.138.697a8.174 8.174 0 01-2.693-4.524l-.135.405c-1.036-1.19-1.413-2.62-1.625-4.337l-.224.74C.526 9.028.899.427.899.427S3.373 11.79 6.824 14.799z"
        ></path>
      </svg>