    <svg
      xmlns="http://www.w3.org/2000/svg"
      x="0"
      y="0"
      enableBackground="new 0 0 512 512"
      version="1.1"
      viewBox="0 0 512 512"
      xmlSpace="preserve"
         fill="#cccccc"
         stroke="#cccccc"
    >
      <path 
            d="M503.467 494.933h-179.2v-204.8c0-4.71-3.814-8.533-8.533-8.533s-8.533 3.823-8.533 8.533v204.8h-25.6v-76.8c0-4.71-3.814-8.533-8.533-8.533s-8.533 3.823-8.533 8.533v76.8h-17.067v-76.8c0-4.71-3.814-8.533-8.533-8.533s-8.533 3.823-8.533 8.533v76.8h-25.6v-102.4h85.333c4.719 0 8.533-3.823 8.533-8.533s-3.814-8.533-8.533-8.533H281.6v-76.8c0-4.71-3.814-8.533-8.533-8.533s-8.533 3.823-8.533 8.533v76.8h-17.067v-76.8c0-4.71-3.814-8.533-8.533-8.533s-8.533 3.823-8.533 8.533v76.8h-25.6v-102.4h128a8.53 8.53 0 008.533-8.533V93.867a8.53 8.53 0 00-8.533-8.533 8.53 8.53 0 00-8.533 8.533V256H187.733V119.467H307.2c4.719 0 8.533-3.823 8.533-8.533s-3.814-8.533-8.533-8.533h-3.26l-14.703-29.414a8.542 8.542 0 00-7.637-4.719h-17.067V8.533C264.533 3.823 260.719 0 256 0s-8.533 3.823-8.533 8.533v59.733H230.4a8.541 8.541 0 00-7.637 4.719L208.06 102.4h-20.326v-8.533c0-4.71-3.814-8.533-8.533-8.533s-8.533 3.823-8.533 8.533v170.667a8.53 8.53 0 008.533 8.533h8.533v221.867H8.533c-4.719 0-8.533 3.823-8.533 8.533S3.814 512 8.533 512h494.933c4.719 0 8.533-3.823 8.533-8.533s-3.813-8.534-8.532-8.534zm-267.793-409.6h40.653l8.533 17.067h-57.72l8.534-17.067z"></path>
      <path d="M247.467 170.667v17.067c0 2.261.896 4.437 2.5 6.033l8.533 8.533a8.51 8.51 0 006.033 2.5 8.509 8.509 0 006.033-2.5 8.523 8.523 0 000-12.066l-6.033-6.033v-13.534c0-4.71-3.814-8.533-8.533-8.533s-8.533 3.822-8.533 8.533z"></path>
      <path d="M204.8 187.733c0 28.237 22.963 51.2 51.2 51.2s51.2-22.963 51.2-51.2-22.963-51.2-51.2-51.2-51.2 22.964-51.2 51.2zm85.333 0c0 18.825-15.309 34.133-34.133 34.133-18.825 0-34.133-15.309-34.133-34.133S237.175 153.6 256 153.6c18.825 0 34.133 15.309 34.133 34.133z"></path>
    </svg>