<svg
        xmlns="http://www.w3.org/2000/svg"
        width="50mm"
        height="71.5mm"
        version="1.1"
        viewBox="0 0 50 71.5"
      >
        <defs>
          <clipPath clipPathUnits="userSpaceOnUse">
            <path d="M320.808 311.819h18.493v-6.138h-18.493z"></path>
          </clipPath>
          <clipPath clipPathUnits="userSpaceOnUse">
            <path d="M333.768 336.042h10.814v-10.814h-10.814z"></path>
          </clipPath>
          <clipPath clipPathUnits="userSpaceOnUse">
            <path d="M304.83 335.128h10.813v-10.815H304.83z"></path>
          </clipPath>
          <clipPath clipPathUnits="userSpaceOnUse">
            <path d="M320.808 311.819h18.493v-6.138h-18.493z"></path>
          </clipPath>
          <clipPath clipPathUnits="userSpaceOnUse">
            <path d="M333.768 336.042h10.814v-10.814h-10.814z"></path>
          </clipPath>
          <clipPath clipPathUnits="userSpaceOnUse">
            <path d="M304.83 335.128h10.813v-10.815H304.83z"></path>
          </clipPath>
        </defs>
        <g transform="translate(0 -225.5)">
          <path
            fill="none"
            fillOpacity="1"
            stroke="none"
            strokeDasharray="none"
            strokeDashoffset="0"
            strokeLinecap="round"
            strokeLinejoin="miter"
            strokeMiterlimit="4"
            strokeOpacity="1"
            strokeWidth="11.625"
            d="M0.005 225.5H49.994V297H0.005z"
            opacity="0.443"
            paintOrder="fill markers stroke"
          ></path>
          <g transform="translate(.661 7.858) scale(.97354)">
            <ellipse
              cx="25"
              cy="272.002"
              fill="none"
              fillOpacity="1"
              stroke="#4896ef"
              strokeDasharray="none"
              strokeDashoffset="0"
              strokeLinecap="round"
              strokeLinejoin="miter"
              strokeMiterlimit="4"
              strokeOpacity="1"
              strokeWidth="5.906"
              opacity="1"
              paintOrder="fill markers stroke"
              rx="22.042"
              ry="22.045"
            ></ellipse>
            <g transform="matrix(-.34546 0 0 -.39524 10.546 294.03)">
              <path
                fill="#f2cabb"
                fillOpacity="1"
                fillRule="nonzero"
                stroke="none"
                d="M-2.933 3.26s.044-8.696-1.382-8.928c-1.945-.317-2.527 8.203-2.527 8.203s-.362-8.334-2.383-7.917c-2.087.44-1.382 9.367-1.382 9.367s-2.106-5.55-3.135-5.167c-.516.191-.761 4.44-.336 7.266.428 2.897.143 3.909.143 3.909v.165c6.161.196 10.652 1.965 12.518 2.843l.066-.154S1.453-.855-.404-3.128C-2.35-3.134-2.933 3.26-2.933 3.26z"
              ></path>
            </g>
            <g
              fill="#badfe5"
              fillOpacity="1"
              transform="matrix(.34546 0 0 -.39524 14.824 290.763)"
            >
              <path
                fill="#badfe5"
                fillOpacity="1"
                fillRule="nonzero"
                stroke="none"
                d="M1.713 5.629c-.032.35-.15-5.652-.18-5.65-5.676.21-10.624 1.805-12.075 2.712-.615.372-.899.637-.899.637S-6.38 64.578-2.9 73.857c4.117 6.498 10.875 11.99 18.496 15.212 6.4 2.705 14.113 3.847 21.103 2.71 9.334-1.517 20.286-5.143 24.805-12.234 16.888-26.508 18.874-74.91 18.874-74.91s-.329-.188-.954-.473c-1.866-.878-6.358-2.648-12.518-2.843-.384-.014-.77-.024-1.164-.024 0 0-1.329 5.052-2.601 14.638-1.397 10.487-3.878 21.577-6.348 31.097 2.274-14.623 3.92-29.063 4.949-38.796C44.132-3.43 17.712-3.673 1.713 5.63z"
              ></path>
            </g>
            <g transform="matrix(.34546 0 0 -.39524 42.75 294.256)">
              <path
                fill="#f2cabb"
                fillOpacity="1"
                fillRule="nonzero"
                stroke="none"
                d="M-2.933 3.26s.044-8.696-1.382-8.928c-1.945-.317-2.527 8.203-2.527 8.203s-.362-8.334-2.383-7.917c-2.087.44-1.382 9.367-1.382 9.367s-2.106-5.55-3.135-5.167c-.516.191-.761 4.44-.336 7.266.428 2.897.143 3.909.143 3.909v.165c6.161.196 10.652 1.965 12.518 2.843l.066-.154S1.453-.855-.404-3.128C-2.35-3.134-2.933 3.26-2.933 3.26z"
              ></path>
            </g>
            <g transform="matrix(.34546 0 0 -.39524 16.914 262.995)">
              <path
                fill="#a6d6e2"
                fillOpacity="1"
                fillRule="nonzero"
                stroke="none"
                d="M1.482-.02L.272-10.979C-.12-14.26-.453-18.104-.91-22.21c-.235-2.053-.409-4.18-.62-6.34l-.62-6.547c-.185-2.196-.37-4.39-.554-6.552-.168-2.163-.392-4.288-.503-6.35-.138-2.06-.27-4.053-.398-5.94-.12-1.89-.272-3.677-.346-5.328l-.49-11.008v-.005a.126.126 0 00-.252.007l.087 11.034c.036 1.655.15 3.445.227 5.34l.288 5.96c.094 2.067.302 4.195.453 6.363l.5 6.567.647 6.553c.226 2.161.413 4.29.661 6.344.464 4.111.94 7.943 1.382 11.223C-.03-7.607.403-4.882.687-2.973L1.15.025c.014.091.1.154.191.14a.17.17 0 00.141-.186"
              ></path>
            </g>
            <g transform="matrix(.34546 0 0 -.39524 31.987 262.354)">
              <path
                fill="#a6d6e2"
                fillOpacity="1"
                fillRule="nonzero"
                stroke="none"
                d="M0 0l1.005-2.948 1.152-3.384c.452-1.303.866-2.807 1.352-4.436.95-3.265 2.097-7.065 3.257-11.157.289-1.024.584-2.066.88-3.12.267-1.059.538-2.132.809-3.213.545-2.161 1.111-4.354 1.58-6.577.466-2.222 1.016-4.426 1.405-6.625l1.218-6.445 1.695-11.488.672-4.587c.213-1.362.329-2.568.545-3.528l.613-3.042.002-.01a.126.126 0 00-.247-.055l-.732 3.039c-.257.967-.416 2.157-.682 3.512l-.818 4.564-.928 5.414-.992 6.028-1.265 6.411c-.406 2.189-.97 4.377-1.452 6.585a219.501 219.501 0 01-1.55 6.572l-.789 3.218-.857 3.108c-1.15 4.08-2.158 7.908-3.057 11.181-.46 1.634-.822 3.148-1.218 4.47L.573-3.087-.318-.104A.167.167 0 000 0"
              ></path>
            </g>
          </g>
          <path
            fill="none"
            fillOpacity="1"
            stroke="none"
            strokeDasharray="none"
            strokeDashoffset="0"
            strokeLinecap="round"
            strokeLinejoin="miter"
            strokeMiterlimit="4"
            strokeOpacity="1"
            strokeWidth="2.521"
            d="M0.005 227.254H49.994V297H0.005z"
            opacity="0.443"
            paintOrder="fill markers stroke"
          ></path>
        </g>
      </svg>