<?xml version="1.0" encoding="iso-8859-1"?>
<!-- Generator: Adobe Illustrator 19.0.0, SVG Export Plug-In . SVG Version: 6.00 Build 0)  -->
<svg version="1.1" id="Layer_1" xmlns="http://www.w3.org/2000/svg" xmlns:xlink="http://www.w3.org/1999/xlink" x="0px" y="0px"
	 viewBox="0 0 512.001 512.001" style="enable-background:new 0 0 512.001 512.001;" xml:space="preserve"
	 fill="#cccccc">
<g>
	<g>
		<path d="M493.093,331.615c-29.332-25.725-84.298-24.026-114.984-20.615c-0.012-0.025-0.026-0.049-0.038-0.073
			c-7.452-14.393-25.458-25.224-55.056-33.116c-1.454-0.386-2.877-0.732-4.302-1.081c-0.913-15.408-11.253-33.095-30.8-52.643
			c-19.556-19.556-37.248-29.864-52.643-30.798c-0.351-1.432-0.698-2.864-1.087-4.324c-7.905-29.593-18.735-47.596-33.103-55.032
			c-0.027-0.013-0.055-0.028-0.081-0.042c3.411-30.684,5.111-85.647-20.611-114.982c-11.342-12.935-26.78-19.453-44.682-18.873
			c-29.329,0.969-56.625,23.429-81.13,66.755c-17.587,31.094-29.319,65.053-34.724,82.44c-13.167,6.961-19.671,24.636-19.848,53.798
			c-0.132,21.847,3.385,48.373,9.411,70.966c4.729,17.704,11.971,36.628,20.178,52.888c-5.186,31.717,35.659,81.4,54.892,100.634
			c16.326,16.326,37.219,32.258,55.889,42.62c15.34,8.513,28.375,12.773,39.009,12.773c2.02,0,3.948-0.164,5.793-0.471
			c16.244,8.194,35.143,15.423,52.835,20.151c22.176,5.915,48.148,9.413,69.762,9.413c0.398,0,0.8-0.001,1.197-0.003
			c29.176-0.177,46.855-6.687,53.805-19.853c17.389-5.406,51.341-17.136,82.432-34.72c43.325-24.505,65.785-51.799,66.756-81.13
			C512.553,358.407,506.027,342.957,493.093,331.615z M136.805,33.41c7.977-0.276,13.688,2.056,18.475,7.514
			c14.191,16.184,16.502,54.523,12.511,89.619c-12.781,0.376-30.767,1.585-56.377,4.171c-15.291,1.544-35.969,3.938-53.7,6.462
			C75.472,91.545,105.877,34.432,136.805,33.41z M41.678,265.385c-10.713-40.169-9.361-77.689-5.038-86.799
			c8.82-2.07,36.495-6.323,73.883-10.213c48.231-5.018,70.07-5.01,76.061-4.208c3.248,2.618,9.618,12.001,15.336,33.41
			c0.632,2.373,1.178,4.668,1.682,6.921c-14.525,7.777-37,20.969-72.518,43.399c-20.623,13.024-56.158,35.989-77.581,51.26
			C48.764,288.146,44.606,276.349,41.678,265.385z M178.002,449.495c-3.644-0.4-12.591-2.972-27.555-12.139
			c-14.386-8.813-30.218-21.318-42.351-33.451c-12.133-12.133-24.638-27.966-33.451-42.352
			c-9.165-14.961-11.737-23.907-12.138-27.552c8.312-6.685,38.702-27.644,82.872-55.638c49.951-31.658,80.345-48.647,88.65-51.689
			c4.453,0.618,14.775,5.529,30.273,21.027c15.484,15.482,20.398,25.799,21.022,30.276c-3.049,8.316-20.036,38.706-51.687,88.647
			C205.627,410.817,184.662,441.216,178.002,449.495z M343.628,401.479c-3.887,37.366-8.136,65.033-10.213,73.885
			c-9.112,4.323-46.631,5.673-86.79-5.036c-10.97-2.931-22.77-7.09-33.778-11.827c15.27-21.425,38.237-56.96,51.259-77.583
			c22.429-35.518,35.621-57.994,43.398-72.518c2.249,0.502,4.542,1.047,6.918,1.678c21.404,5.708,30.79,12.082,33.417,15.343
			C348.638,331.415,348.646,353.255,343.628,401.479z M478.592,375.193c-1.024,30.929-58.135,61.333-107.767,79.091
			c2.526-17.733,4.919-38.409,6.462-53.698c2.589-25.638,3.798-43.634,4.173-56.418c45.716-5.388,77.579,1.992,89.619,12.551
			C476.537,361.508,478.854,367.206,478.592,375.193z"/>
	</g>
</g>
<g>
</g>
<g>
</g>
<g>
</g>
<g>
</g>
<g>
</g>
<g>
</g>
<g>
</g>
<g>
</g>
<g>
</g>
<g>
</g>
<g>
</g>
<g>
</g>
<g>
</g>
<g>
</g>
<g>
</g>
</svg>
