<?xml version="1.0" standalone="no"?>
<!DOCTYPE svg PUBLIC "-//W3C//DTD SVG 20010904//EN"
 "http://www.w3.org/TR/2001/REC-SVG-20010904/DTD/svg10.dtd">
<svg version="1.0" xmlns="http://www.w3.org/2000/svg"
 width="64.000000pt" height="64.000000pt" viewBox="0 0 64.000000 64.000000"
 preserveAspectRatio="xMidYMid meet">

<g transform="translate(0.000000,64.000000) scale(0.100000,-0.100000)"
fill="#cccccc" stroke="none">
<path d="M204 518 c-89 -50 -110 -64 -146 -100 -44 -45 -57 -100 -35 -150 8
-18 18 -45 21 -60 9 -38 37 -61 93 -76 26 -7 62 -17 78 -22 39 -12 102 -2 110
18 3 8 -4 30 -15 49 -21 36 -19 83 5 83 7 0 18 6 24 14 12 15 90 31 129 27 13
-1 43 -11 67 -22 56 -25 80 -15 88 38 5 31 1 45 -29 90 -39 59 -59 73 -102 73
-16 0 -37 8 -46 19 -11 12 -37 21 -74 25 -31 3 -73 8 -92 11 -26 5 -46 0 -76
-17z m142 -17 c36 -22 57 -82 52 -151 -2 -33 -8 -46 -20 -48 -12 -2 -20 7 -27
36 -6 22 -21 52 -33 67 -23 30 -90 64 -125 65 -31 0 -29 12 5 32 36 23 109 23
148 -1z m91 -17 c23 -23 25 -31 19 -79 -12 -102 -30 -114 -40 -26 -4 32 -15
74 -25 95 -19 35 -18 36 1 36 10 0 31 -12 45 -26z m115 -41 c24 -22 23 -38 -5
-50 -13 -6 -32 -27 -41 -47 -24 -50 -51 -49 -42 2 3 20 6 57 6 81 l0 44 32 -7
c17 -3 40 -14 50 -23z m-289 -11 c38 -22 78 -87 75 -121 -4 -33 -33 -51 -50
-30 -28 34 -63 49 -118 49 -55 0 -120 -27 -120 -50 0 -6 -5 -8 -10 -5 -17 10
-11 78 10 113 32 51 76 74 133 68 27 -3 63 -14 80 -24z m335 -54 c19 -19 14
-38 -12 -38 -13 0 -35 -9 -50 -21 -29 -23 -33 -12 -11 31 20 39 50 51 73 28z
m10 -70 c-2 -18 -10 -23 -32 -23 -37 0 -44 18 -14 33 37 17 50 14 46 -10z
m-345 -27 c37 -36 31 -47 -16 -32 -53 18 -104 -10 -121 -66 -9 -27 -27 -29
-48 -5 -43 48 -33 96 25 123 60 28 120 20 160 -20z m-9 -47 c24 -9 19 -19 -11
-21 -31 -1 -53 -26 -53 -60 0 -25 -11 -29 -40 -13 -16 9 -17 15 -8 40 17 49
65 72 112 54z m26 -43 c0 -6 -4 -13 -10 -16 -5 -3 -10 -17 -10 -31 0 -17 -6
-24 -19 -24 -38 0 -50 50 -17 72 16 11 56 10 56 -1z m26 -57 c-6 -16 -36 -19
-36 -3 0 6 5 20 11 31 10 19 12 20 21 4 5 -9 7 -24 4 -32z"/>
</g>
</svg>
