<?xml version="1.0" standalone="no"?>
<!DOCTYPE svg PUBLIC "-//W3C//DTD SVG 20010904//EN"
 "http://www.w3.org/TR/2001/REC-SVG-20010904/DTD/svg10.dtd">
<svg version="1.0" xmlns="http://www.w3.org/2000/svg"
 width="64.000000pt" height="64.000000pt" viewBox="-3 -3 67 67"
 preserveAspectRatio="xMidYMid meet">

<g transform="translate(0.000000,64.000000) scale(0.100000,-0.100000)"
fill="#cccccc" stroke="#cccccc" stroke-width="30">
<path d="M245 631 c-90 -22 -173 -90 -215 -176 -20 -41 -25 -65 -25 -135 1
-77 4 -91 34 -148 38 -70 70 -100 145 -140 43 -22 64 -26 136 -26 72 0 93 4
136 26 75 40 107 70 145 140 31 57 34 71 34 148 0 79 -3 90 -36 150 -71 130
-214 195 -354 161z m209 -45 c94 -46 153 -135 163 -246 l5 -56 -33 -10 c-24
-7 -39 -20 -51 -44 -22 -44 -47 -62 -75 -55 -36 9 -73 -12 -88 -49 -18 -43
-29 -50 -82 -52 -25 0 -51 -8 -63 -19 -18 -17 -21 -16 -64 9 -143 84 -187 275
-96 419 80 126 246 170 384 103z m156 -339 c0 -28 -53 -118 -88 -148 -67 -59
-168 -89 -249 -74 -36 6 -37 8 -18 21 11 8 30 12 42 9 36 -9 73 12 88 50 17
38 47 59 74 50 32 -10 71 13 86 49 19 44 65 75 65 43z"/>
<path d="M316 584 c-9 -22 3 -32 14 -14 12 19 12 30 1 30 -5 0 -12 -7 -15 -16z"/>
<path d="M370 531 c0 -13 29 -35 37 -28 7 8 -15 37 -28 37 -5 0 -9 -4 -9 -9z"/>
<path d="M260 521 c0 -13 29 -35 37 -28 7 8 -15 37 -28 37 -5 0 -9 -4 -9 -9z"/>
<path d="M176 494 c-9 -22 3 -32 14 -14 12 19 12 30 1 30 -5 0 -12 -7 -15 -16z"/>
<path d="M456 464 c-9 -22 3 -32 14 -14 12 19 12 30 1 30 -5 0 -12 -7 -15 -16z"/>
<path d="M260 442 c-125 -63 -93 -241 47 -258 108 -14 189 111 133 204 -41 66
-113 88 -180 54z m144 -41 c26 -27 31 -39 31 -81 0 -43 -5 -54 -33 -82 -47
-48 -117 -48 -164 0 -28 28 -33 39 -33 81 0 52 25 92 70 112 37 16 96 3 129
-30z"/>
<path d="M520 431 c0 -13 29 -35 37 -28 7 8 -15 37 -28 37 -5 0 -9 -4 -9 -9z"/>
<path d="M140 390 c0 -11 5 -20 10 -20 6 0 10 9 10 20 0 11 -4 20 -10 20 -5 0
-10 -9 -10 -20z"/>
<path d="M60 391 c0 -13 29 -35 37 -28 7 8 -15 37 -28 37 -5 0 -9 -4 -9 -9z"/>
<path d="M500 340 c0 -5 9 -10 20 -10 11 0 20 5 20 10 0 6 -9 10 -20 10 -11 0
-20 -4 -20 -10z"/>
<path d="M80 290 c0 -5 9 -10 20 -10 11 0 20 5 20 10 0 6 -9 10 -20 10 -11 0
-20 -4 -20 -10z"/>
<path d="M136 214 c-9 -22 3 -32 14 -14 12 19 12 30 1 30 -5 0 -12 -7 -15 -16z"/>
<path d="M190 161 c0 -13 29 -35 37 -28 7 8 -15 37 -28 37 -5 0 -9 -4 -9 -9z"/>
</g>
</svg>
