<?xml version="1.0" encoding="iso-8859-1"?>
<!-- Generator: Adobe Illustrator 18.0.0, SVG Export Plug-In . SVG Version: 6.00 Build 0)  -->
<!DOCTYPE svg PUBLIC "-//W3C//DTD SVG 1.1//EN" "http://www.w3.org/Graphics/SVG/1.1/DTD/svg11.dtd">
<svg version="1.1" id="Capa_1" xmlns="http://www.w3.org/2000/svg" xmlns:xlink="http://www.w3.org/1999/xlink" x="0px" y="0px"
	 viewBox="0 0 297 297" style="enable-background:new 0 0 297 297;" xml:space="preserve"
	 fill="#cccccc">
<g>
	<path d="M64.895,207.274c-2.139,0-4.226,0.871-5.727,2.371c-1.51,1.511-2.381,3.607-2.381,5.736c0,2.137,0.871,4.226,2.381,5.735
		c1.501,1.509,3.598,2.371,5.727,2.371c2.138,0,4.226-0.862,5.735-2.371c1.51-1.51,2.371-3.599,2.371-5.735
		c0-2.129-0.861-4.226-2.371-5.736C69.121,208.145,67.033,207.274,64.895,207.274z"/>
	<path d="M98.336,190.555c-2.129,0-4.226,0.86-5.735,2.371c-1.501,1.51-2.371,3.597-2.371,5.735c0,2.138,0.87,4.226,2.371,5.735
		c1.52,1.51,3.606,2.371,5.735,2.371c2.138,0,4.226-0.861,5.735-2.371c1.51-1.51,2.371-3.598,2.371-5.735
		c0-2.139-0.861-4.226-2.371-5.735C102.561,191.415,100.474,190.555,98.336,190.555z"/>
	<path d="M64.895,173.834c-2.129,0-4.216,0.861-5.727,2.371c-1.51,1.51-2.381,3.607-2.381,5.735c0,2.138,0.871,4.226,2.381,5.736
		c1.511,1.509,3.598,2.371,5.727,2.371c2.138,0,4.226-0.862,5.735-2.371c1.51-1.511,2.371-3.608,2.371-5.736
		c0-2.128-0.861-4.226-2.371-5.735C69.121,174.695,67.033,173.834,64.895,173.834z"/>
	<path d="M148.5,0C66.634,0,0.031,66.617,0.031,148.5S66.634,297,148.5,297s148.469-66.617,148.469-148.5S230.366,0,148.5,0z
		 M148.5,20.268c70.69,0,128.201,57.524,128.201,128.232c0,20.358-4.775,39.619-13.252,56.733
		c-53.179-0.586-69.68-23.368-72.181-27.393c5.639-8.371,8.941-18.473,8.941-29.341c0-28.82-23.197-52.267-51.71-52.267
		c-25.081,0-46.042,18.146-50.726,42.13c-57.643-0.11-72.179-17.161-72.918-23.771C39.76,60.287,89.541,20.268,148.5,20.268z
		 M148.5,180.5c-17.338,0-31.442-14.355-31.442-32s14.104-32,31.442-32c17.338,0,31.442,14.355,31.442,32S165.838,180.5,148.5,180.5
		z M148.5,276.732c-70.69,0-128.201-57.524-128.201-128.232c0-2.528,0.082-5.038,0.227-7.53
		c15.819,11.659,41.788,17.598,77.248,17.661c4.682,23.986,25.644,42.136,50.727,42.136c10.411,0,20.106-3.137,28.23-8.509
		c7.797,9.925,28.716,29.351,74.598,32.74C227.935,256.376,190.55,276.732,148.5,276.732z"/>
</g>
<g>
</g>
<g>
</g>
<g>
</g>
<g>
</g>
<g>
</g>
<g>
</g>
<g>
</g>
<g>
</g>
<g>
</g>
<g>
</g>
<g>
</g>
<g>
</g>
<g>
</g>
<g>
</g>
<g>
</g>
</svg>
