<?xml version="1.0" standalone="no"?>
<!DOCTYPE svg PUBLIC "-//W3C//DTD SVG 20010904//EN"
 "http://www.w3.org/TR/2001/REC-SVG-20010904/DTD/svg10.dtd">
<svg version="1.0" xmlns="http://www.w3.org/2000/svg"
 width="50.000000pt" height="50.000000pt" viewBox="0 0 50.000000 50.000000"
 preserveAspectRatio="xMidYMid meet">

<g transform="translate(0.000000,50.000000) scale(0.100000,-0.100000)"
fill="#cccccc" stroke="none">
<path d="M147 434 c-62 -19 -133 -88 -142 -138 -12 -63 3 -107 51 -153 101
-98 287 -98 388 0 131 126 12 309 -198 306 -28 0 -73 -7 -99 -15z m184 -14
c77 -22 149 -94 149 -151 0 -20 -6 -30 -22 -35 -13 -4 -34 -15 -47 -25 -13
-11 -35 -19 -48 -19 -13 0 -33 -5 -43 -10 -12 -6 -28 -7 -43 -1 -16 6 -37 6
-60 -1 -30 -9 -40 -8 -71 12 -20 12 -43 19 -52 16 -9 -3 -27 6 -45 25 -23 23
-28 36 -23 57 23 105 172 169 305 132z m-263 -229 c13 -7 26 -10 29 -7 3 3 22
-3 42 -13 56 -28 248 -14 288 21 48 41 58 28 17 -22 -46 -54 -98 -74 -194 -74
-68 0 -93 4 -126 21 -43 23 -94 75 -94 96 0 9 2 9 8 1 4 -6 18 -17 30 -23z"/>
<path d="M200 412 c0 -5 11 -12 25 -15 16 -3 24 0 22 7 -4 14 -47 21 -47 8z"/>
<path d="M318 403 c-20 -5 -24 -23 -5 -23 17 0 41 17 31 22 -5 2 -17 3 -26 1z"/>
<path d="M140 393 c0 -14 19 -38 25 -32 8 8 -5 39 -16 39 -5 0 -9 -3 -9 -7z"/>
<path d="M186 349 c-33 -26 -33 -52 0 -78 51 -40 154 -13 154 39 0 52 -103 79
-154 39z m115 -19 l24 -20 -24 -20 c-13 -11 -36 -20 -51 -20 -15 0 -38 9 -51
20 l-24 20 24 20 c13 11 36 20 51 20 15 0 38 -9 51 -20z"/>
<path d="M70 345 c-10 -12 -10 -15 3 -15 8 0 20 7 27 15 10 12 10 15 -3 15 -8
0 -20 -7 -27 -15z"/>
<path d="M386 338 c8 -28 12 -33 20 -25 9 8 -6 47 -17 47 -6 0 -7 -10 -3 -22z"/>
<path d="M76 283 c-3 -3 -3 -10 0 -14 7 -12 44 -12 44 0 0 10 -36 21 -44 14z"/>
<path d="M350 271 c0 -10 42 -23 49 -15 7 6 -20 24 -36 24 -7 0 -13 -4 -13 -9z"/>
<path d="M164 225 c22 -17 36 -19 36 -6 0 10 -24 21 -43 21 -7 0 -3 -7 7 -15z"/>
<path d="M284 216 c-10 -8 -16 -17 -12 -21 7 -7 48 16 48 27 0 12 -14 9 -36
-6z"/>
</g>
</svg>
