    <svg
      xmlns="http://www.w3.org/2000/svg"
      x="0"
      y="0"
      enableBackground="new 0 0 512 512"
      version="1.1"
      viewBox="0 0 512 512"
      xmlSpace="preserve"
	  fill="#cccccc"
         stroke="#cccccc"
    >
      <path d="M211.482 264.329a8.714 8.714 0 001.86.205c3.917 0 7.441-2.705 8.32-6.682.674-3.046 15.889-72.38 17.143-138.385h8.661V256a8.536 8.536 0 008.533 8.533 8.536 8.536 0 008.533-8.533V110.933a8.536 8.536 0 00-8.533-8.533h-20.011c-1.937-4.915-4.676-13.056-5.402-21.47L256 61.867l25.421 19.063c-1.161 13.372-7.39 26.052-7.458 26.197a8.544 8.544 0 00-.896 3.806c0 68.412 16.563 143.744 17.271 146.918.879 3.977 4.412 6.682 8.32 6.682a8.544 8.544 0 008.345-10.385c-.171-.751-16.555-75.23-16.862-141.329 2.364-5.282 8.525-20.463 8.525-36.019a8.518 8.518 0 00-3.413-6.827l-30.72-23.04v-38.4A8.536 8.536 0 00256 0a8.536 8.536 0 00-8.533 8.533v38.4l-30.72 23.04a8.516 8.516 0 00-3.413 6.827c0 15.633 6.161 30.737 8.508 35.942-.299 66.065-16.666 140.655-16.836 141.406-1.025 4.6 1.876 9.157 6.476 10.181zM179.2 290.133h14.967c-8.619 36.139-22.443 64.145-22.596 64.452-2.108 4.215-.393 9.344 3.814 11.443a8.495 8.495 0 003.814.905 8.552 8.552 0 007.637-4.719c.674-1.357 15.889-32.102 24.858-72.081h16.597l-14.754 66.415c-1.024 4.599 1.877 9.156 6.477 10.18a8.722 8.722 0 001.86.205c3.917 0 7.441-2.705 8.32-6.682l15.582-70.118h20.437l15.59 70.118c.879 3.977 4.412 6.682 8.32 6.682a8.544 8.544 0 008.345-10.385l-14.763-66.415h16.589c8.977 39.979 24.192 70.724 24.875 72.081 1.485 2.987 4.506 4.719 7.637 4.719a8.41 8.41 0 003.797-.905c4.224-2.099 5.931-7.228 3.831-11.443-.154-.307-13.978-28.314-22.605-64.452H332.8a8.53 8.53 0 008.533-8.533 8.53 8.53 0 00-8.533-8.533H179.2a8.536 8.536 0 00-8.533 8.533 8.536 8.536 0 008.533 8.533zM503.467 494.933h-97.741c-7.526-11.913-31.582-51.533-51.925-102.4h13.133a8.53 8.53 0 008.533-8.533 8.53 8.53 0 00-8.533-8.533H145.067a8.536 8.536 0 00-8.533 8.533 8.536 8.536 0 008.533 8.533H158.2c-20.318 50.799-44.399 90.479-51.925 102.4H8.533A8.536 8.536 0 000 503.466C0 508.177 3.823 512 8.533 512h494.933a8.53 8.53 0 008.533-8.533 8.53 8.53 0 00-8.532-8.534zm-315.734 0c0-37.641 30.626-68.267 68.267-68.267 37.641 0 68.267 30.626 68.267 68.267H187.733zm153.6 0c0-47.053-38.281-85.333-85.333-85.333s-85.333 38.281-85.333 85.333h-44.322c11.366-18.842 32.324-56.243 50.167-102.4h158.984c17.835 46.157 38.793 83.558 50.159 102.4h-44.322z"></path>
    </svg>