<svg
        xmlns="http://www.w3.org/2000/svg"
        width="50mm"
        height="142.983"
        version="1.1"
        viewBox="0 0 50 37.831"
      >
        <g transform="translate(0 -259.169)">
          <g
            fillOpacity="1"
            fillRule="evenodd"
            stroke="none"
            strokeWidth="0.035"
            transform="scale(-2.88397 2.88397) rotate(-16.184 -437.084 1427.505)"
          >
            <path
              fill="#3a221f"
              d="M353.555 271.277c0 1.604-4.023 2.905-8.986 2.905-4.963 0-8.986-1.3-8.986-2.905 0-1.605 4.023-2.906 8.986-2.906 4.963 0 8.986 1.3 8.986 2.906"
            ></path>
            <path
              fill="#614540"
              d="M351.113 270.885c0 .931-2.93 1.686-6.544 1.686-3.615 0-6.544-.755-6.544-1.686 0-.698.825-6.387 3.174-8.366.783-.66 2.466.556 3.37.556.677 0 2.071-1.15 2.686-.752 2.664 1.73 3.858 7.805 3.858 8.562"
            ></path>
            <path
              fill="#2b8f96"
              d="M344.569 270.226c-2.971 0-5.479-.51-6.278-1.208-.185.935-.266 1.647-.266 1.867 0 .931 2.93 1.686 6.544 1.686 3.614 0 6.544-.755 6.544-1.686 0-.224-.105-.915-.321-1.821-.855.674-3.318 1.162-6.223 1.162"
            ></path>
          </g>
        </g>
      </svg>