<svg
        xmlns="http://www.w3.org/2000/svg"
        width="115.068"
        height="7mm"
        version="1.1"
        viewBox="0 0 30.445 7"
      >
        <path
          fill="#3b2d29"
          fillOpacity="1"
          fillRule="nonzero"
          stroke="none"
          strokeWidth="0.088"
          d="M2.9 1.282l.002.003zm24.639.005l.005-.005zm2.524-.292C29.494.09 28.358-.218 27.387.218c-1.07.564-1.602 2.013-.502 2.88.216.156.468.241.73.25.258.003.49-.086.668-.21.18-.123.315-.29.398-.47.145-.33.11-.706-.144-.977a.914.914 0 00-.298-.22.668.668 0 00-.489-.042l-.11.062-.024.05c.017.06.23.01.454.208.144.13.213.294.2.483l-.079.178a.598.598 0 01-.235.194.516.516 0 01-.309.047.637.637 0 01-.288-.155.805.805 0 01-.214-.453.953.953 0 01.383-.746c.087-.053.162-.091.262-.138.308-.101.611-.073.887.069.146.1.296.245.368.389.087.185.128.36.118.559-.09.492-.448.865-.864 1.118-3.85 2.207-6.972-5.24-13.077-1.72-6.105-3.52-9.227 3.927-13.076 1.72-.417-.253-.774-.626-.864-1.118-.01-.2.03-.374.117-.56.073-.143.223-.287.368-.388.276-.142.58-.17.888-.07.1.048.175.086.261.14a.952.952 0 01.383.745.814.814 0 01-.214.453.639.639 0 01-.288.155.515.515 0 01-.308-.047.597.597 0 01-.236-.194l-.078-.178a.57.57 0 01.2-.483c.224-.199.436-.148.454-.209l-.025-.049-.11-.062a.666.666 0 00-.488.043.913.913 0 00-.298.219c-.255.271-.29.647-.145.977.084.18.218.347.399.47.178.123.41.213.667.21.262-.01.515-.094.73-.25 1.1-.868.568-2.316-.502-2.88C2.087-.219.95.087.381.994c-.598.988-.465 2.136.208 3.101 1.17 1.675 4.156 3.988 9.526 2.387 2.278-.68 4.058-2.261 5.107-3.267 1.05 1.006 2.83 2.587 5.107 3.267 5.37 1.6 8.356-.712 9.526-2.387.673-.965.806-2.113.208-3.1"
        ></path>
      </svg>