<svg
        xmlns="http://www.w3.org/2000/svg"
        width="292.399"
        height="215.456"
        version="1.1"
        viewBox="0 0 77.364 57.006"
      >
        <g strokeOpacity="1" transform="translate(0 -239.994)">
          <g transform="matrix(1 0 0 1 -2385.517 -103.231)">
            <g
              stroke="#000"
              transform="matrix(.34285 -.0831 -.0831 -.34285 2462.715 398.83)"
            >
              <path
                fill="#fff"
                fillOpacity="1"
                fillRule="nonzero"
                stroke="#000"
                strokeOpacity="1"
                d="M0 0l.653 2.726c-.455.101-.867.461-1.256 1.09-.772 1.246-.594 2.93.651 3.702.636.394 1.387.479 1.838.363l.653 2.728c-.453.108-.841.464-1.224 1.083-.772 1.246-.594 2.93.651 3.702.627.388 1.355.481 1.808.373l.653 2.726c-.456.101-.867.461-1.256 1.09-.772 1.246-.594 2.93.651 3.702.636.394 1.387.479 1.838.363l.654 2.732c-.457.092-.891.455-1.286 1.094-.772 1.245-.594 2.93.651 3.701.646.4 1.418.478 1.867.353l.656 2.739c-.459.083-.917.449-1.319 1.098-.771 1.245-.594 2.93.652 3.701.655.406 1.451.476 1.898.343l.657 2.744c-.461.076-.942.444-1.35 1.102-.771 1.246-.594 2.931.652 3.702.665.412 1.482.475 1.927.333l.658 2.75c-.463.066-.967.438-1.381 1.106-.771 1.246-.594 2.931.652 3.702.674.418 1.514.474 1.957.323l.66 2.755c-.465.058-.992.434-1.412 1.111-.771 1.246-.594 2.93.652 3.702.684.424 1.546.472 1.987.312l.661 2.762c-.468.048-1.018.428-1.444 1.115-.772 1.246-.594 2.93.652 3.702.693.43 1.578.472 2.017.302l.659 2.754c-.46.08-.936.451-1.34 1.109-.766 1.249-.582 2.932.667 3.698.658.404 1.457.47 1.903.333l.657 2.744c-.46.079-.936.45-1.34 1.109-.766 1.248-.582 2.932.667 3.698.658.404 1.457.47 1.903.332l.657 2.744c-.46.08-.936.451-1.34 1.109-.766 1.249-.582 2.932.667 3.698.658.404 1.457.47 1.903.333l.657 2.744c-.46.079-.936.45-1.34 1.109-.766 1.248-.582 2.931.667 3.698.658.404 1.457.47 1.903.332l.657 2.744c-.46.08-.936.451-1.34 1.109-.766 1.249-.582 2.932.667 3.698.658.405 1.457.47 1.903.333l.657 2.744c-.46.079-.936.45-1.34 1.109-.766 1.248-.582 2.932.667 3.698.658.404 1.457.47 1.903.332l.657 2.744c-.46.08-.936.451-1.34 1.109-.766 1.249-.582 2.932.667 3.698.658.404 1.457.47 1.903.333l.657 2.744c-.46.079-1.042.007-1.446.665-.383.624-.012 1.463-.012 1.463l-2.956.707c-.054.013-.453-.622-.996-.959-1.246-.771-2.934-.609-3.706.637-.34.55-.358 1.533-.412 1.546l-2.976.713c-.048.011-.454-.647-1.007-.99-1.245-.771-2.934-.609-3.705.637-.347.56-.36 1.566-.408 1.578l-2.971.711c-.041.01-.453-.67-1.016-1.019-1.246-.771-2.934-.609-3.706.637-.352.569-.361 1.599-.403 1.609l-2.965.709c-.035.009-.454-.694-1.027-1.049-1.245-.771-2.934-.609-3.705.637-.359.579-.364 1.632-.4 1.641l-2.958.708c-.029.007-.455-.718-1.037-1.078-1.246-.772-2.934-.609-3.706.636-.364.589-.366 1.665-.395 1.672l-2.953.706c-.021.005-.455-.742-1.047-1.108-1.245-.772-2.934-.609-3.705.636-.371.599-.37 1.698-.391 1.704l-2.96.708c-.045.011-.458-.664-1.021-1.01-1.248-.766-2.935-.597-3.701.652-.346.563-.356 1.573-.401 1.584l-2.97.711c-.045.011-.458-.664-1.021-1.009-1.249-.767-2.935-.598-3.702.651-.345.563-.355 1.573-.4 1.584l-2.97.711c-.045.011-.458-.664-1.021-1.009-1.249-.767-2.935-.598-3.702.651-.345.563-.355 1.574-.4 1.584l-2.97.711c-.045.011-.458-.664-1.021-1.009-1.249-.767-2.936-.597-3.702.651-.345.563-.355 1.574-.4 1.584l-2.971.711c-.044.011-.458-.664-1.02-1.009-1.249-.766-2.936-.597-3.702.652-.346.562-.356 1.573-.4 1.584l-2.952.706s-.744-.749-1.368-1.132c-.625-.383-1.728.083-2.181.192l-.652-2.723c.453-.109 1.542-.636 1.925-1.26.767-1.249.235-2.849-1.014-3.615-.624-.383-1.693-.394-2.146-.286l-.652-2.723c.453-.108 1.542-.635 1.925-1.26.767-1.248.235-2.848-1.014-3.615-.624-.383-1.693-.393-2.146-.285l-.652-2.723c.453-.109 1.542-.636 1.925-1.26.767-1.249.235-2.849-1.014-3.615-.624-.384-1.693-.394-2.146-.286l-.652-2.723c.453-.108 1.542-.635 1.926-1.26.766-1.249.234-2.848-1.015-3.615-.624-.383-1.693-.394-2.146-.285l-.652-2.723c.453-.109 1.542-.636 1.926-1.26.766-1.249.234-2.849-1.015-3.615-.624-.384-1.693-.394-2.146-.286l-.652-2.723c.453-.108 1.542-.635 1.926-1.26.766-1.248.234-2.848-1.015-3.615-.624-.383-1.693-.394-2.146-.285l-.652-2.724c.453-.108 1.542-.635 1.926-1.259.766-1.249.234-2.849-1.015-3.615-.624-.384-1.693-.394-2.146-.286l-.654-2.734c.447-.134 1.452-.628 1.815-1.214.771-1.246.246-2.847-1-3.619-.592-.366-1.586-.389-2.046-.306l-.656-2.741c.449-.128 1.477-.63 1.846-1.225.771-1.246.246-2.847-1-3.618-.602-.373-1.62-.393-2.077-.303l-.655-2.735c.45-.12 1.5-.63 1.875-1.235.772-1.245.246-2.847-.999-3.618-.612-.379-1.653-.395-2.109-.299l-.653-2.729c.452-.112 1.524-.63 1.905-1.245.772-1.245.246-2.847-.999-3.618-.622-.385-1.687-.399-2.141-.294l-.652-2.725c.454-.104 1.549-.629 1.935-1.253.772-1.246.246-2.847-.999-3.619-.631-.391-1.718-.397-2.17-.285l-.653-2.729c.456-.097 1.574-.624 1.966-1.258.772-1.246.247-2.847-.999-3.619-.641-.397-1.75-.395-2.2-.275l-.655-2.735c.458-.088 1.599-.618 1.998-1.262.771-1.246.246-2.847-1-3.619-.65-.402-1.781-.393-2.23-.264l-.656-2.741c.46-.08 1.625-.613 2.03-1.267.771-1.246.246-2.847-1-3.618-.66-.409-1.814-.393-2.26-.255l-.656-2.741c.458-.088 1.599-.618 1.998-1.262.771-1.246.246-2.847-1-3.619-.65-.402-1.781-.393-2.23-.264l-.656-2.741c.46-.08 1.562-.879 1.966-1.533.388-.626.759-1.44.542-2.347l2.829-.677c.212.908.628 1.54 1.258 1.926 1.249.767 2.851.243 3.617-1.006.386-.629.503-1.249.282-2.154l2.936-.703c.213.907.629 1.54 1.258 1.926 1.249.766 2.851.243 3.617-1.006.387-.63.503-1.249.282-2.154l2.936-.703c.213.907.629 1.54 1.258 1.926 1.249.766 2.851.243 3.617-1.006.387-.63.503-1.249.282-2.154l2.936-.703c.213.907.629 1.539 1.259 1.926 1.248.766 2.85.242 3.617-1.006.386-.63.502-1.249.281-2.154l2.937-.703c.212.907.628 1.539 1.258 1.926 1.248.766 2.85.242 3.617-1.006.386-.63.503-1.249.282-2.155l2.943-.704c.239.901.625 1.449 1.216 1.815 1.246.771 2.849.254 3.621-.992.37-.597.501-1.143.306-2.054l2.948-.706c.231.903.625 1.474 1.226 1.846 1.245.771 2.849.254 3.62-.992.376-.607.505-1.176.303-2.086l2.941-.704c.225.904.626 1.497 1.236 1.874 1.246.772 2.849.255 3.621-.991.382-.617.507-1.209.298-2.117l2.936-.703c.216.907.626 1.521 1.246 1.905 1.245.772 2.849.255 3.62-.991.388-.626.509-1.242.292-2.148l2.936-.703c.209.908.623 1.545 1.252 1.935 1.246.772 2.849.255 3.621-.991.394-.636.506-1.273.281-2.178l2.942-.704c.201.91.618 1.571 1.257 1.967 1.245.772 2.849.255 3.62-.991.4-.646.505-1.306.272-2.208l3.048-.73c.217.906.212 1.619.832 2.003C-1.038-.3-.453.108 0 0"
              ></path>
            </g>
            <path
              fill="#cb5147"
              fillOpacity="1"
              fillRule="nonzero"
              stroke="#000"
              strokeWidth="0.353"
              d="M2459.352 397.237l-29.192-.16.235-42.861 29.192.16z"
            ></path>
            <g
              fill="#fff"
              fillOpacity="1"
              stroke="#fff"
              transform="matrix(-.3285 0 0 -.3285 2453.563 366.549)"
            >
              <path
                fill="#fff"
                fillOpacity="1"
                fillRule="nonzero"
                stroke="#fff"
                strokeOpacity="1"
                d="M0 0l.039-.328-.646-8.53s-2.861-4.821-2.899-8.058c-.068-6.231 7.1-17.408 22.084-18.799l-.019-.194-.164-6.444s-.376-.047-1.004-.183c-2.3-.512-7.962-2.203-11.073-6.898-1.892-2.859-3.536-6.472-4.975-10.665l-.337.116c-5.555 0-10.868 2.898-10.868 2.898s-4.107 12.559-.967 42.99c3.14 30.432 7.729 41.783 22.944 45.406 15.215 3.622 21.254-5.314 21.254-5.314s13.36 3.304 18.838-7.97c5.478-11.274 14.732-62.553 12.317-65.451-2.415-2.898-11.515-6.521-11.515-6.521l-.096-.058h-.011c-1.121 2.106-2.173 3.69-3.11 4.569-5.081 4.802-13.265 6.831-16.375 7.449-.792.164-1.256.232-1.256.232l-.482 7.98-.088.173c6.501 3.314 9.99 9.12 9.99 9.12s4.453-1.14 7.486 1.69c5.034 4.696 1.787 16.211-4.849 13.312l-.059.136c-12.375 3.71-14.075 29.446-14.075 29.446S19.515 2.174 0 0"
              ></path>
            </g>
            <g
              fill="#cb5147"
              fillOpacity="1"
              stroke="#fff"
              transform="matrix(-.3285 0 0 -.3285 2439.038 369.662)"
            >
              <path
                fill="#cb5147"
                fillOpacity="1"
                fillRule="nonzero"
                stroke="#fff"
                strokeOpacity="1"
                d="M0 0l-.059.136c-12.375 3.709-14.075 29.446-14.075 29.446S-24.703 11.651-44.218 9.478l.039-.329-.646-8.53s-2.861-4.821-2.899-8.057c-.067-6.165 6.961-17.154 21.62-18.736l-.145-5.699s1.77-3.173 6.865-2.97c.214.01.418.021.641.041 5.595.509 6.988 3.56 6.988 3.56l-.445 7.354c6.221 3.344 9.563 8.886 9.563 8.886s4.453-1.141 7.487 1.69C9.883-8.617 6.637 2.899 0 0"
              ></path>
            </g>
            <g
              fill="#fff"
              fillOpacity="1"
              stroke="#fff"
              transform="matrix(-.3285 0 0 -.3285 2454.407 366.44)"
            >
              <path
                fill="#fff"
                fillOpacity="1"
                fillRule="nonzero"
                stroke="#fff"
                strokeOpacity="1"
                d="M0 0c.837.047 1.657.118 2.454.218.785.13 1.658.217 2.432.399.795.148 1.587.341 2.377.556a34.92 34.92 0 012.339.726 37.906 37.906 0 018.71 4.416c2.711 1.821 5.197 3.972 7.458 6.328a49.368 49.368 0 013.209 3.695c.502.642.992 1.294 1.471 1.949.471.653.94 1.344 1.357 1.983l.036.056a.975.975 0 001.789-.459v-.001c.106-1.354.276-2.753.472-4.127.2-1.378.433-2.753.705-4.12.542-2.735 1.228-5.445 2.13-8.082.907-2.632 2.023-5.207 3.54-7.545 1.515-2.314 3.498-4.435 6.094-5.568.012-.005.017-.019.012-.03-.005-.012-.018-.018-.029-.013-2.671.985-4.83 3.035-6.509 5.311-1.685 2.299-2.974 4.863-4.049 7.492-1.072 2.635-1.928 5.352-2.639 8.104a82.827 82.827 0 00-.955 4.157 67.998 67.998 0 00-.729 4.228v.002l1.825-.403c-.449-.781-.925-1.462-1.427-2.157a34.75 34.75 0 00-1.561-2.013 51.39 51.39 0 00-3.431-3.748c-2.407-2.381-5.041-4.541-7.903-6.357A39.387 39.387 0 0010.02.652a36.517 36.517 0 00-2.445-.69c-.82-.2-1.649-.379-2.495-.514-.852-.172-1.642-.225-2.501-.343a38.034 38.034 0 00-2.52-.158H.046A.527.527 0 000 0"
              ></path>
            </g>
            <g
              fill="#fff"
              fillOpacity="1"
              stroke="#fff"
              transform="matrix(-.3285 0 0 -.3285 2437.776 371.559)"
            >
              <path
                fill="#fff"
                fillOpacity="1"
                fillRule="nonzero"
                stroke="#fff"
                strokeOpacity="1"
                d="M0 0c-.002.011-.06.072-.18.222a3.907 3.907 0 01-.526.529c-.46.397-1.088.667-1.825.588l-.14-.015-.07-.007-.035-.003-.018-.002h-.002l.095.025-.006-.002-.011-.003-.339-.107c-.092-.039-.267-.058-.294-.102a.924.924 0 00-.154-.1C-3.612.997-3.746.831-3.868.75c-.117-.108-.213-.241-.319-.347a5.21 5.21 0 01-.419-.636c-.089-.17-.138-.25-.138-.25l-.037-.063a.4.4 0 00-.74.206s0 .153.031.384c.041.231.107.565.271.951.103.183.192.399.346.597.183.191.284.416.581.599.269.195.578.387.768.431l.336.117.009.004.11.028.026.005.054.008.107.015.216.03c.29.026.593.023.889-.033.295-.038.584-.142.838-.271.259-.119.485-.284.67-.455.194-.165.346-.347.466-.522C.68.845.741.275.74.275L.759.106A.383.383 0 000 0"
              ></path>
            </g>
            <g
              fill="#fff"
              fillOpacity="1"
              stroke="#fff"
              transform="matrix(-.3285 0 0 -.3285 2444.557 370.392)"
            >
              <path
                fill="#fff"
                fillOpacity="1"
                fillRule="nonzero"
                stroke="#fff"
                strokeOpacity="1"
                d="M0 0a2.479 2.479 0 104.82 1.163A2.479 2.479 0 000 0"
              ></path>
            </g>
            <g
              fill="#fff"
              fillOpacity="1"
              stroke="#fff"
              transform="matrix(-.3285 0 0 -.3285 2443.697 369.626)"
            >
              <path
                fill="#fff"
                fillOpacity="1"
                fillRule="nonzero"
                stroke="#fff"
                strokeOpacity="1"
                d="M0 0s1.025.05 1.828.408c1.435.641 1.735 1.325 2.021 1.096C4.135 1.28 3.046-1.437.725-1.9.725-1.9-.167-.534 0 0"
              ></path>
            </g>
            <g
              fill="#fff"
              fillOpacity="1"
              stroke="#fff"
              transform="matrix(-.3285 0 0 -.3285 2450.752 369.867)"
            >
              <path
                fill="#fff"
                fillOpacity="1"
                fillRule="nonzero"
                stroke="#fff"
                strokeOpacity="1"
                d="M0 0a2.479 2.479 0 11-4.508 2.063A2.479 2.479 0 010 0"
              ></path>
            </g>
            <g
              fill="#fff"
              fillOpacity="1"
              stroke="#fff"
              transform="matrix(-.3285 0 0 -.3285 2451.45 368.95)"
            >
              <path
                fill="#fff"
                fillOpacity="1"
                fillRule="nonzero"
                stroke="#fff"
                strokeOpacity="1"
                d="M0 0s-.995.245-1.716.75C-3 1.653-3.168 2.382-3.491 2.211c-.322-.166.227-3.04 2.419-3.938C-1.072-1.727.062-.556 0 0"
              ></path>
            </g>
            <g
              fill="#fff"
              fillOpacity="1"
              stroke="#fff"
              transform="matrix(-.3285 0 0 -.3285 2444.361 366.903)"
            >
              <path
                fill="#fff"
                fillOpacity="1"
                fillRule="nonzero"
                stroke="#fff"
                strokeOpacity="1"
                d="M0 0c2.21 2.399 7.125-1.511 6.284-3.296C5.604-4.737-2.05-2.224 0 0"
              ></path>
            </g>
            <g
              fill="#fff"
              fillOpacity="1"
              stroke="#fff"
              transform="matrix(-.3285 0 0 -.3285 2450.694 366.71)"
            >
              <path
                fill="#fff"
                fillOpacity="1"
                fillRule="nonzero"
                stroke="#fff"
                strokeOpacity="1"
                d="M0 0c-1.634 2.298-6.276-.523-5.748-2.145C-5.32-3.456 1.518-2.132 0 0"
              ></path>
            </g>
            <g
              fill="#fff"
              fillOpacity="1"
              stroke="#fff"
              transform="matrix(-.3285 0 0 -.3285 2441.713 357.647)"
            >
              <path
                fill="#fff"
                fillOpacity="1"
                fillRule="nonzero"
                stroke="#fff"
                strokeOpacity="1"
                d="M0 0c-.519.381 2.025 5.621 3.698 4.237C5.785 2.516.521-.382 0 0"
              ></path>
            </g>
            <g
              fill="#fff"
              fillOpacity="1"
              stroke="#fff"
              transform="matrix(-.3285 0 0 -.3285 2442.218 357.647)"
            >
              <path
                fill="#fff"
                fillOpacity="1"
                fillRule="nonzero"
                stroke="#fff"
                strokeOpacity="1"
                d="M0 0c-.635-.439-2.983 5.455-.981 6.473C1.019 7.49 1.521 1.049 0 0"
              ></path>
            </g>
            <g
              fill="#fff"
              fillOpacity="1"
              stroke="#fff"
              transform="matrix(-.3285 0 0 -.3285 2445.405 381.135)"
            >
              <path
                fill="#fff"
                fillOpacity="1"
                fillRule="nonzero"
                stroke="#fff"
                strokeOpacity="1"
                d="M0 0s-3.937-5.981-4.953-5.595c-4.007 1.506-2.93 8.26-2.93 8.26l-.041.193c.662.142 1.059.193 1.059.193S-5.096-.123 0 .081z"
              ></path>
            </g>
            <g
              fill="#fff"
              fillOpacity="1"
              stroke="#fff"
              transform="matrix(-.3285 0 0 -.3285 2445.195 381.095)"
            >
              <path
                fill="#fff"
                fillOpacity="1"
                fillRule="nonzero"
                stroke="#fff"
                strokeOpacity="1"
                d="M0 0c5.595.508 6.988 3.56 6.988 3.56s.49-.072 1.323-.245l-.051-.264C9.786.641 6.612-4.954 5.839-5.086 5.086-5.208-.641-.122-.641-.122v.081c.214.01.418.02.641.041"
              ></path>
            </g>
            <g
              fill="#280b0b"
              stroke="#fff"
              transform="matrix(-.3285 0 0 -.3285 2449.09 384.797)"
            >
              <path
                fill="#280b0b"
                fillOpacity="1"
                fillRule="nonzero"
                stroke="#fff"
                strokeOpacity="1"
                d="M0 0a67.34 67.34 0 01-2.646-5.312c-.395-.905-.783-1.813-1.11-2.74a22.98 22.98 0 01-.844-2.804 10.795 10.795 0 01-.229-1.417 3.502 3.502 0 01-.03-.698l.002-.345c-.013-.058.028-.228.039-.336.08-.487.124-1.004.271-1.434l.184-.673.252-.673c.155-.453.369-.886.568-1.325.189-.4.471-.859.701-1.285.232-.453.521-.809.777-1.219.26-.394.555-.802.842-1.163v-.001l.028-.035a.402.402 0 00.074-.16l2.953-13.279a.08.08 0 00-.06-.094.078.078 0 00-.092.055l-3.721 13.085.102-.194-.001.001a16.7 16.7 0 00-.95 1.221c-.272.431-.603.861-.825 1.296-.242.448-.486.837-.726 1.333-.21.468-.447.925-.601 1.418l-.253.731-.19.771c-.153.523-.177 1.004-.247 1.5-.012.138-.04.212-.038.404l.004.401c-.002.269.007.534.053.789.054.522.163 1.023.282 1.52.251.99.572 1.95.941 2.885.357.942.772 1.855 1.193 2.763A61.627 61.627 0 00-.455.267a.262.262 0 00.361.09A.267.267 0 000 0"
              ></path>
            </g>
            <g
              fill="#fff"
              fillOpacity="1"
              stroke="#fff"
              transform="matrix(-.3285 0 0 -.3285 2445.354 381.302)"
            >
              <path
                fill="#fff"
                fillOpacity="1"
                fillRule="nonzero"
                stroke="#fff"
                strokeOpacity="1"
                d="M0 0l.073-2.008C.119-3.286.191-5.11.209-7.304l.103-7.497.031-4.211.104-4.335c.184-5.826.584-11.653.934-16.018.349-4.364.631-7.27.631-7.27a.264.264 0 00-.524-.056s-.339 2.904-.774 7.267c-.436 4.363-.95 10.189-1.249 16.037-.081 1.463-.096 2.935-.147 4.379-.009 1.446.037 2.844.056 4.233l.24 7.472.199 7.302c0 .052.043.093.096.091A.093.093 0 000 0"
              ></path>
            </g>
            <g
              fill="#fff"
              fillOpacity="1"
              stroke="#fff"
              transform="matrix(-.3285 0 0 -.3285 2445.92 387.275)"
            >
              <path
                fill="#fff"
                fillOpacity="1"
                fillRule="nonzero"
                stroke="#fff"
                strokeOpacity="1"
                d="M0 0a1.145 1.145 0 11-2.286-.002A1.145 1.145 0 010 0"
              ></path>
            </g>
            <g
              fill="#fff"
              fillOpacity="1"
              stroke="#fff"
              transform="matrix(-.3285 0 0 -.3285 2445.879 384.852)"
            >
              <path
                fill="#fff"
                fillOpacity="1"
                fillRule="nonzero"
                stroke="#fff"
                strokeOpacity="1"
                d="M0 0a1.145 1.145 0 11-2.29 0A1.145 1.145 0 010 0"
              ></path>
            </g>
            <g
              fill="#fff"
              fillOpacity="1"
              stroke="#fff"
              transform="matrix(-.3285 0 0 -.3285 2445.903 389.774)"
            >
              <path
                fill="#fff"
                fillOpacity="1"
                fillRule="nonzero"
                stroke="#fff"
                strokeOpacity="1"
                d="M0 0a1.144 1.144 0 11-2.222-.548A1.144 1.144 0 010 0"
              ></path>
            </g>
            <g
              fill="#fff"
              fillOpacity="1"
              stroke="#fff"
              transform="matrix(-.3285 0 0 -.3285 2445.768 392.162)"
            >
              <path
                fill="#fff"
                fillOpacity="1"
                fillRule="nonzero"
                stroke="#fff"
                strokeOpacity="1"
                d="M0 0a1.144 1.144 0 11-2.285-.077A1.144 1.144 0 010 0"
              ></path>
            </g>
            <g
              fill="#fff"
              fillOpacity="1"
              stroke="#fff"
              transform="matrix(-.3285 0 0 -.3285 2445.503 394.5)"
            >
              <path
                fill="#fff"
                fillOpacity="1"
                fillRule="nonzero"
                stroke="#fff"
                strokeOpacity="1"
                d="M0 0a1.145 1.145 0 11-2.286 0A1.145 1.145 0 010 0"
              ></path>
            </g>
            <g
              fill="#fff"
              fillOpacity="1"
              stroke="#fff"
              transform="matrix(.93118 0 0 .93118 2395.568 86.056)"
            >
              <g transform="matrix(-.35278 0 0 -.35278 55.13 310.36)">
                <path
                  fill="#fff"
                  fillOpacity="1"
                  fillRule="nonzero"
                  stroke="#fff"
                  strokeOpacity="1"
                  d="M0 0s-3.1-.603-4.669-.321C-6.239-.04-8.05.845-8.05.845s1.529 1.611 4.106 1.329C-1.368 1.892 0 0 0 0"
                ></path>
              </g>
              <g transform="matrix(-.35278 0 0 -.35278 57.97 310.063)">
                <path
                  fill="#fff"
                  fillOpacity="1"
                  fillRule="nonzero"
                  stroke="#fff"
                  strokeOpacity="1"
                  d="M0 0s.281-2.616 3.823-3.059C7.365-3.502 8.251-.684 8.251-.684s-2.255-.765-4.428-.483C2.234-.96 0 0 0 0"
                ></path>
              </g>
              <g transform="matrix(-.35278 0 0 -.35278 58.868 309.374)">
                <path
                  fill="#fff"
                  fillOpacity="1"
                  fillRule="nonzero"
                  stroke="#fff"
                  strokeOpacity="1"
                  d="M.138-.124l.388-.309.645-.45.88-.514c.34-.156.698-.343 1.09-.506l1.265-.428 1.395-.299 1.47-.098c.416-.028 1 .055 1.485.076l.378.027.336.083.661.16c.44.072.844.291 1.241.424.408.125.726.379 1.059.54.326.175.581.401.836.564.243.178.426.365.594.503.313.303.462.478.462.478l.012.014c.095.11.262.123.372.028.1-.085.12-.229-.22-.67-.341-.44-.523-.665-.766-.884-.254-.203-.511-.482-.858-.692-.348-.2-.689-.497-1.124-.664-.432-.173-.845-.448-1.366-.543l-.768-.197-.392-.098-.377-.034c-.528-.033-.97-.122-1.582-.111l-1.6.134-1.513.358c-.479.154-.926.353-1.352.525-.413.204-.787.43-1.139.621C.972-1.657.465-1.219.122-.904c-.346.34-.504.541-.505.541-.092.113-.292.427-.179.519a.269.269 0 00.343-.01s.267-.189.357-.27z"
                ></path>
              </g>
            </g>
            <ellipse
              cx="2448.314"
              cy="372.199"
              fill="#fff"
              fillOpacity="1"
              stroke="none"
              strokeDasharray="none"
              strokeDashoffset="0"
              strokeLinecap="round"
              strokeLinejoin="round"
              strokeMiterlimit="4"
              strokeWidth="2.806"
              opacity="0.98"
              paintOrder="markers fill stroke"
              rx="0.973"
              ry="0.679"
            ></ellipse>
          </g>
          <g
            stroke="#000"
            strokeDasharray="none"
            strokeLinecap="round"
            strokeMiterlimit="4"
            strokeWidth="1.5"
            transform="matrix(.6167 0 0 -.6167 .47 243.56)"
          >
            <path
              fill="none"
              stroke="#000"
              strokeDasharray="none"
              strokeLinecap="round"
              strokeLinejoin="miter"
              strokeMiterlimit="4"
              strokeOpacity="1"
              strokeWidth="1.5"
              d="M0 0c12.028 0 12.028-8.891 24.058-8.891S36.088 0 48.119 0C60.148 0 60.148-8.891 72.18-8.891"
            ></path>
          </g>
          <g
            stroke="#000"
            strokeDasharray="none"
            strokeLinecap="round"
            strokeMiterlimit="4"
            strokeWidth="1.5"
            transform="matrix(.6167 0 0 -.6167 .47 248.747)"
          >
            <path
              fill="none"
              stroke="#000"
              strokeDasharray="none"
              strokeLinecap="round"
              strokeLinejoin="miter"
              strokeMiterlimit="4"
              strokeOpacity="1"
              strokeWidth="1.5"
              d="M0 0c12.028 0 12.028-8.89 24.058-8.89S36.088 0 48.119 0C60.148 0 60.148-8.89 72.18-8.89"
            ></path>
          </g>
          <g
            stroke="#000"
            strokeDasharray="none"
            strokeLinecap="round"
            strokeMiterlimit="4"
            strokeWidth="1.5"
            transform="matrix(.6167 0 0 -.6167 .47 253.934)"
          >
            <path
              fill="none"
              stroke="#000"
              strokeDasharray="none"
              strokeLinecap="round"
              strokeLinejoin="miter"
              strokeMiterlimit="4"
              strokeOpacity="1"
              strokeWidth="1.5"
              d="M0 0c12.028 0 12.028-8.89 24.058-8.89S36.088 0 48.119 0C60.148 0 60.148-8.89 72.18-8.89"
            ></path>
          </g>
          <g
            stroke="#000"
            strokeDasharray="none"
            strokeLinecap="round"
            strokeMiterlimit="4"
            strokeWidth="1.5"
            transform="matrix(.6167 0 0 -.6167 .47 259.12)"
          >
            <path
              fill="none"
              stroke="#000"
              strokeDasharray="none"
              strokeLinecap="round"
              strokeLinejoin="miter"
              strokeMiterlimit="4"
              strokeOpacity="1"
              strokeWidth="1.5"
              d="M0 0c12.028 0 12.028-8.889 24.058-8.889S36.088 0 48.119 0C60.148 0 60.148-8.889 72.18-8.889"
            ></path>
          </g>
          <g
            stroke="#000"
            strokeDasharray="none"
            strokeLinecap="round"
            strokeMiterlimit="4"
            strokeWidth="1.5"
            transform="matrix(.6167 0 0 -.6167 57.242 254.658)"
          >
            <path
              fill="none"
              stroke="#000"
              strokeDasharray="none"
              strokeLinecap="round"
              strokeLinejoin="miter"
              strokeMiterlimit="4"
              strokeOpacity="1"
              strokeWidth="1.5"
              d="M0 0c0-12.719-10.312-23.028-23.03-23.028-12.718 0-23.029 10.309-23.029 23.028 0 12.717 10.311 23.028 23.029 23.028S0 12.717 0 0z"
            ></path>
          </g>
          <g
            stroke="#000"
            strokeDasharray="none"
            strokeLinecap="round"
            strokeMiterlimit="4"
            strokeWidth="1.5"
            transform="matrix(.6167 0 0 -.6167 54.309 254.658)"
          >
            <path
              fill="none"
              stroke="#000"
              strokeDasharray="none"
              strokeLinecap="round"
              strokeLinejoin="miter"
              strokeMiterlimit="4"
              strokeOpacity="1"
              strokeWidth="1.5"
              d="M0 0c0-10.093-8.18-18.273-18.273-18.273-10.092 0-18.273 8.18-18.273 18.273s8.181 18.271 18.273 18.271C-8.18 18.271 0 10.093 0 0z"
            ></path>
          </g>
        </g>
      </svg>