<svg
        xmlns="http://www.w3.org/2000/svg"
        width="20mm"
        height="216.582"
        version="1.1"
        viewBox="0 0 20 57.304"
      >
        <path
          fill="#85b735"
          fillOpacity="1"
          stroke="none"
          strokeLinecap="butt"
          strokeLinejoin="miter"
          strokeOpacity="1"
          strokeWidth="0.265"
          d="M3.964 50.966l6.402 6.338 6.401-6.338-5.283-40.439H9.315z"
        ></path>
        <path
          fill="#85b735"
          fillOpacity="1"
          stroke="none"
          strokeLinecap="butt"
          strokeLinejoin="miter"
          strokeOpacity="1"
          strokeWidth="0.265"
          d="M9.315 10.527L5.592 3.718l4.993-2.412 4.622 2.412-3.723 6.81z"
        ></path>
        <path
          fill="#f4f3ef"
          fillOpacity="1"
          stroke="none"
          strokeLinecap="butt"
          strokeLinejoin="miter"
          strokeOpacity="1"
          strokeWidth="0.265"
          d="M0 1.285l6.008 6.237 4.527-6.216-6-1.306z"
        ></path>
        <path
          fill="#f4f3ef"
          fillOpacity="1"
          stroke="none"
          strokeLinecap="butt"
          strokeLinejoin="miter"
          strokeOpacity="1"
          strokeWidth="0.265"
          d="M15.113 7.522l-4.528-6.216 4.947-.152L20 4.001z"
        ></path>
        <path
          fill="none"
          stroke="none"
          strokeLinecap="butt"
          strokeLinejoin="miter"
          strokeOpacity="1"
          strokeWidth="0.265"
          d="M3.964 50.966l6.402 6.338 6.401-6.338-5.283-40.439 2.501-4.557 1.128 1.552L20 4.002l-4.468-2.848-4.997.152-6-1.306L0 1.285l6.008 6.237.908-1.367 2.4 4.372z"
        ></path>
      </svg>