<svg xmlns="http://www.w3.org/2000/svg" version="1" viewBox="0 0 380 200">
      <g fillRule="evenodd" transform="translate(.5 -.5)">
        <path fill="#bf0a30" d="M0 184H379V200H0z"></path>
        <path fill="#fff" d="M0 168H379V184H0z"></path>
        <path fill="#bf0a30" d="M0 152H379V168H0z"></path>
        <path fill="#fff" d="M0 136H379V152H0z"></path>
        <path fill="#bf0a30" d="M0 121H379V136H0z"></path>
        <path fill="#fff" d="M0 106H379V121H0z"></path>
        <path fill="#bf0a30" d="M0 91H379V106H0z"></path>
        <path fill="#fff" d="M0 76H379V91H0z"></path>
        <path fill="#bf0a30" d="M0 61H379V76H0z"></path>
        <path fill="#fff" d="M0 46H379V61H0z"></path>
        <path fill="#bf0a30" d="M0 31H379V46H0z"></path>
        <path fill="#fff" d="M0 16H379V31H0z"></path>
        <path fill="#bf0a30" d="M0 1H379V16H0z"></path>
      </g>
      <g transform="translate(.5 -.5)">
        <path fill="#002868" fillRule="evenodd" d="M0 1H152V106H0z"></path>
      </g>
      <g fill="#fff" fillRule="evenodd" transform="translate(.5 -.5)">
        <path
          d="M100.33 146.67l4.139-.772 1.275-4.013 2.014 3.698 4.21-.028-2.895 3.058 1.327 3.996-3.802-1.808-3.39 2.497.544-4.175z"
          transform="matrix(1.0487 .08995 -.08593 1.0977 -86.263 -76.411)"
        ></path>
        <path
          d="M100.33 146.67l4.139-.772 1.275-4.013 2.014 3.698 4.21-.028-2.895 3.058 1.327 3.996-3.802-1.808-3.39 2.497.544-4.175z"
          transform="matrix(1.0487 .08995 -.08593 1.0977 -61.263 -76.411)"
        ></path>
        <path
          d="M100.33 146.67l4.139-.772 1.275-4.013 2.014 3.698 4.21-.028-2.895 3.058 1.327 3.996-3.802-1.808-3.39 2.497.544-4.175z"
          transform="matrix(1.0487 .08995 -.08593 1.0977 -35.263 -76.411)"
        ></path>
        <path
          d="M100.33 146.67l4.139-.772 1.275-4.013 2.014 3.698 4.21-.028-2.895 3.058 1.327 3.996-3.802-1.808-3.39 2.497.544-4.175z"
          transform="matrix(1.0487 .08995 -.08593 1.0977 -10.263 -76.411)"
        ></path>
        <path
          d="M100.33 146.67l4.139-.772 1.275-4.013 2.014 3.698 4.21-.028-2.895 3.058 1.327 3.996-3.802-1.808-3.39 2.497.544-4.175z"
          transform="matrix(1.0487 .08995 -.08593 1.0977 14.737 -76.411)"
        ></path>
        <path
          d="M100.33 146.67l4.139-.772 1.275-4.013 2.014 3.698 4.21-.028-2.895 3.058 1.327 3.996-3.802-1.808-3.39 2.497.544-4.175z"
          transform="matrix(1.0487 .08995 -.08593 1.0977 40.737 -76.411)"
        ></path>
        <path
          d="M100.33 146.67l4.139-.772 1.275-4.013 2.014 3.698 4.21-.028-2.895 3.058 1.327 3.996-3.802-1.808-3.39 2.497.544-4.175z"
          transform="matrix(1.0487 .08995 -.08593 1.0977 -73.263 -86.411)"
        ></path>
        <path
          d="M100.33 146.67l4.139-.772 1.275-4.013 2.014 3.698 4.21-.028-2.895 3.058 1.327 3.996-3.802-1.808-3.39 2.497.544-4.175z"
          transform="matrix(1.0487 .08995 -.08593 1.0977 -86.263 -97.411)"
        ></path>
        <path
          d="M100.33 146.67l4.139-.772 1.275-4.013 2.014 3.698 4.21-.028-2.895 3.058 1.327 3.996-3.802-1.808-3.39 2.497.544-4.175z"
          transform="matrix(1.0487 .08995 -.08593 1.0977 -73.263 -107.41)"
        ></path>
        <path
          d="M100.33 146.67l4.139-.772 1.275-4.013 2.014 3.698 4.21-.028-2.895 3.058 1.327 3.996-3.802-1.808-3.39 2.497.544-4.175z"
          transform="matrix(1.0487 .08995 -.08593 1.0977 -86.263 -118.41)"
        ></path>
        <path
          d="M100.33 146.67l4.139-.772 1.275-4.013 2.014 3.698 4.21-.028-2.895 3.058 1.327 3.996-3.802-1.808-3.39 2.497.544-4.175z"
          transform="matrix(1.0487 .08995 -.08593 1.0977 -73.263 -128.41)"
        ></path>
        <path
          d="M100.33 146.67l4.139-.772 1.275-4.013 2.014 3.698 4.21-.028-2.895 3.058 1.327 3.996-3.802-1.808-3.39 2.497.544-4.175z"
          transform="matrix(1.0487 .08995 -.08593 1.0977 -86.263 -139.41)"
        ></path>
        <path
          d="M100.33 146.67l4.139-.772 1.275-4.013 2.014 3.698 4.21-.028-2.895 3.058 1.327 3.996-3.802-1.808-3.39 2.497.544-4.175z"
          transform="matrix(1.0487 .08995 -.08593 1.0977 -73.263 -149.41)"
        ></path>
        <path
          d="M100.33 146.67l4.139-.772 1.275-4.013 2.014 3.698 4.21-.028-2.895 3.058 1.327 3.996-3.802-1.808-3.39 2.497.544-4.175z"
          transform="matrix(1.0487 .08995 -.08593 1.0977 -86.263 -160.41)"
        ></path>
        <path
          d="M100.33 146.67l4.139-.772 1.275-4.013 2.014 3.698 4.21-.028-2.895 3.058 1.327 3.996-3.802-1.808-3.39 2.497.544-4.175z"
          transform="matrix(1.0487 .08995 -.08593 1.0977 -48.263 -86.411)"
        ></path>
        <path
          d="M100.33 146.67l4.139-.772 1.275-4.013 2.014 3.698 4.21-.028-2.895 3.058 1.327 3.996-3.802-1.808-3.39 2.497.544-4.175z"
          transform="matrix(1.0487 .08995 -.08593 1.0977 -61.263 -97.411)"
        ></path>
        <path
          d="M100.33 146.67l4.139-.772 1.275-4.013 2.014 3.698 4.21-.028-2.895 3.058 1.327 3.996-3.802-1.808-3.39 2.497.544-4.175z"
          transform="matrix(1.0487 .08995 -.08593 1.0977 -48.263 -107.41)"
        ></path>
        <path
          d="M100.33 146.67l4.139-.772 1.275-4.013 2.014 3.698 4.21-.028-2.895 3.058 1.327 3.996-3.802-1.808-3.39 2.497.544-4.175z"
          transform="matrix(1.0487 .08995 -.08593 1.0977 -61.263 -118.41)"
        ></path>
        <path
          d="M100.33 146.67l4.139-.772 1.275-4.013 2.014 3.698 4.21-.028-2.895 3.058 1.327 3.996-3.802-1.808-3.39 2.497.544-4.175z"
          transform="matrix(1.0487 .08995 -.08593 1.0977 -48.263 -128.41)"
        ></path>
        <path
          d="M100.33 146.67l4.139-.772 1.275-4.013 2.014 3.698 4.21-.028-2.895 3.058 1.327 3.996-3.802-1.808-3.39 2.497.544-4.175z"
          transform="matrix(1.0487 .08995 -.08593 1.0977 -61.263 -139.41)"
        ></path>
        <path
          d="M100.33 146.67l4.139-.772 1.275-4.013 2.014 3.698 4.21-.028-2.895 3.058 1.327 3.996-3.802-1.808-3.39 2.497.544-4.175z"
          transform="matrix(1.0487 .08995 -.08593 1.0977 -48.263 -149.41)"
        ></path>
        <path
          d="M100.33 146.67l4.139-.772 1.275-4.013 2.014 3.698 4.21-.028-2.895 3.058 1.327 3.996-3.802-1.808-3.39 2.497.544-4.175z"
          transform="matrix(1.0487 .08995 -.08593 1.0977 -61.263 -160.41)"
        ></path>
        <path
          d="M100.33 146.67l4.139-.772 1.275-4.013 2.014 3.698 4.21-.028-2.895 3.058 1.327 3.996-3.802-1.808-3.39 2.497.544-4.175z"
          transform="matrix(1.0487 .08995 -.08593 1.0977 -23.263 -86.411)"
        ></path>
        <path
          d="M100.33 146.67l4.139-.772 1.275-4.013 2.014 3.698 4.21-.028-2.895 3.058 1.327 3.996-3.802-1.808-3.39 2.497.544-4.175z"
          transform="matrix(1.0487 .08995 -.08593 1.0977 -35.263 -97.411)"
        ></path>
        <path
          d="M100.33 146.67l4.139-.772 1.275-4.013 2.014 3.698 4.21-.028-2.895 3.058 1.327 3.996-3.802-1.808-3.39 2.497.544-4.175z"
          transform="matrix(1.0487 .08995 -.08593 1.0977 14.737 -97.411)"
        ></path>
        <path
          d="M100.33 146.67l4.139-.772 1.275-4.013 2.014 3.698 4.21-.028-2.895 3.058 1.327 3.996-3.802-1.808-3.39 2.497.544-4.175z"
          transform="matrix(1.0487 .08995 -.08593 1.0977 -10.263 -97.411)"
        ></path>
        <path
          d="M100.33 146.67l4.139-.772 1.275-4.013 2.014 3.698 4.21-.028-2.895 3.058 1.327 3.996-3.802-1.808-3.39 2.497.544-4.175z"
          transform="matrix(1.0487 .08995 -.08593 1.0977 27.737 -86.411)"
        ></path>
        <path
          d="M100.33 146.67l4.139-.772 1.275-4.013 2.014 3.698 4.21-.028-2.895 3.058 1.327 3.996-3.802-1.808-3.39 2.497.544-4.175z"
          transform="matrix(1.0487 .08995 -.08593 1.0977 2.737 -86.411)"
        ></path>
        <path
          d="M100.33 146.67l4.139-.772 1.275-4.013 2.014 3.698 4.21-.028-2.895 3.058 1.327 3.996-3.802-1.808-3.39 2.497.544-4.175z"
          transform="matrix(1.0487 .08995 -.08593 1.0977 -35.263 -160.41)"
        ></path>
        <path
          d="M100.33 146.67l4.139-.772 1.275-4.013 2.014 3.698 4.21-.028-2.895 3.058 1.327 3.996-3.802-1.808-3.39 2.497.544-4.175z"
          transform="matrix(1.0487 .08995 -.08593 1.0977 -23.263 -149.41)"
        ></path>
        <path
          d="M100.33 146.67l4.139-.772 1.275-4.013 2.014 3.698 4.21-.028-2.895 3.058 1.327 3.996-3.802-1.808-3.39 2.497.544-4.175z"
          transform="matrix(1.0487 .08995 -.08593 1.0977 -35.263 -139.41)"
        ></path>
        <path
          d="M100.33 146.67l4.139-.772 1.275-4.013 2.014 3.698 4.21-.028-2.895 3.058 1.327 3.996-3.802-1.808-3.39 2.497.544-4.175z"
          transform="matrix(1.0487 .08995 -.08593 1.0977 -23.263 -128.41)"
        ></path>
        <path
          d="M100.33 146.67l4.139-.772 1.275-4.013 2.014 3.698 4.21-.028-2.895 3.058 1.327 3.996-3.802-1.808-3.39 2.497.544-4.175z"
          transform="matrix(1.0487 .08995 -.08593 1.0977 -35.263 -118.41)"
        ></path>
        <path
          d="M100.33 146.67l4.139-.772 1.275-4.013 2.014 3.698 4.21-.028-2.895 3.058 1.327 3.996-3.802-1.808-3.39 2.497.544-4.175z"
          transform="matrix(1.0487 .08995 -.08593 1.0977 -23.263 -107.41)"
        ></path>
        <path
          d="M100.33 146.67l4.139-.772 1.275-4.013 2.014 3.698 4.21-.028-2.895 3.058 1.327 3.996-3.802-1.808-3.39 2.497.544-4.175z"
          transform="matrix(1.0487 .08995 -.08593 1.0977 40.737 -97.411)"
        ></path>
        <path
          d="M100.33 146.67l4.139-.772 1.275-4.013 2.014 3.698 4.21-.028-2.895 3.058 1.327 3.996-3.802-1.808-3.39 2.497.544-4.175z"
          transform="matrix(1.0487 .08995 -.08593 1.0977 -10.263 -118.41)"
        ></path>
        <path
          d="M100.33 146.67l4.139-.772 1.275-4.013 2.014 3.698 4.21-.028-2.895 3.058 1.327 3.996-3.802-1.808-3.39 2.497.544-4.175z"
          transform="matrix(1.0487 .08995 -.08593 1.0977 -10.263 -160.41)"
        ></path>
        <path
          d="M100.33 146.67l4.139-.772 1.275-4.013 2.014 3.698 4.21-.028-2.895 3.058 1.327 3.996-3.802-1.808-3.39 2.497.544-4.175z"
          transform="matrix(1.0487 .08995 -.08593 1.0977 -10.263 -139.41)"
        ></path>
        <path
          d="M100.33 146.67l4.139-.772 1.275-4.013 2.014 3.698 4.21-.028-2.895 3.058 1.327 3.996-3.802-1.808-3.39 2.497.544-4.175z"
          transform="matrix(1.0487 .08995 -.08593 1.0977 27.737 -107.41)"
        ></path>
        <path
          d="M100.33 146.67l4.139-.772 1.275-4.013 2.014 3.698 4.21-.028-2.895 3.058 1.327 3.996-3.802-1.808-3.39 2.497.544-4.175z"
          transform="matrix(1.0487 .08995 -.08593 1.0977 2.737 -107.41)"
        ></path>
        <path
          d="M100.33 146.67l4.139-.772 1.275-4.013 2.014 3.698 4.21-.028-2.895 3.058 1.327 3.996-3.802-1.808-3.39 2.497.544-4.175z"
          transform="matrix(1.0487 .08995 -.08593 1.0977 2.737 -149.41)"
        ></path>
        <path
          d="M100.33 146.67l4.139-.772 1.275-4.013 2.014 3.698 4.21-.028-2.895 3.058 1.327 3.996-3.802-1.808-3.39 2.497.544-4.175z"
          transform="matrix(1.0487 .08995 -.08593 1.0977 2.737 -128.41)"
        ></path>
        <path
          d="M100.33 146.67l4.139-.772 1.275-4.013 2.014 3.698 4.21-.028-2.895 3.058 1.327 3.996-3.802-1.808-3.39 2.497.544-4.175z"
          transform="matrix(1.0487 .08995 -.08593 1.0977 40.737 -118.41)"
        ></path>
        <path
          d="M100.33 146.67l4.139-.772 1.275-4.013 2.014 3.698 4.21-.028-2.895 3.058 1.327 3.996-3.802-1.808-3.39 2.497.544-4.175z"
          transform="matrix(1.0487 .08995 -.08593 1.0977 14.737 -118.41)"
        ></path>
        <path
          d="M100.33 146.67l4.139-.772 1.275-4.013 2.014 3.698 4.21-.028-2.895 3.058 1.327 3.996-3.802-1.808-3.39 2.497.544-4.175z"
          transform="matrix(1.0487 .08995 -.08593 1.0977 14.737 -160.41)"
        ></path>
        <path
          d="M100.33 146.67l4.139-.772 1.275-4.013 2.014 3.698 4.21-.028-2.895 3.058 1.327 3.996-3.802-1.808-3.39 2.497.544-4.175z"
          transform="matrix(1.0487 .08995 -.08593 1.0977 14.737 -139.41)"
        ></path>
        <path
          d="M100.33 146.67l4.139-.772 1.275-4.013 2.014 3.698 4.21-.028-2.895 3.058 1.327 3.996-3.802-1.808-3.39 2.497.544-4.175z"
          transform="matrix(1.0487 .08995 -.08593 1.0977 40.737 -160.41)"
        ></path>
        <path
          d="M100.33 146.67l4.139-.772 1.275-4.013 2.014 3.698 4.21-.028-2.895 3.058 1.327 3.996-3.802-1.808-3.39 2.497.544-4.175z"
          transform="matrix(1.0487 .08995 -.08593 1.0977 27.737 -149.41)"
        ></path>
        <path
          d="M100.33 146.67l4.139-.772 1.275-4.013 2.014 3.698 4.21-.028-2.895 3.058 1.327 3.996-3.802-1.808-3.39 2.497.544-4.175z"
          transform="matrix(1.0487 .08995 -.08593 1.0977 40.737 -139.41)"
        ></path>
        <path
          d="M100.33 146.67l4.139-.772 1.275-4.013 2.014 3.698 4.21-.028-2.895 3.058 1.327 3.996-3.802-1.808-3.39 2.497.544-4.175z"
          transform="matrix(1.0487 .08995 -.08593 1.0977 27.737 -128.41)"
        ></path>
      </g>
      <g transform="translate(.5 -.5)">
        <path fill="#fff" d="M-.45 200.45L380.58 1.84l-.89 199.06z"></path>
      </g>
      <g fill="#00247d" transform="translate(.5 -.5)">
        <path d="M220.56 200.2l-.32-72.639 158.65.159.225 72.32z"></path>
        <path d="M379.01 1.395L250.05 69.693h128.73z"></path>
        <path d="M0 200.22l141.54-73.69 19.771.225-.45 73.69z"></path>
      </g>
      <g transform="translate(.5 -.5)">
        <path
          fill="#fff"
          d="M379.85 180.2l-.41 19.538-33.128 2.06-130.02-68.203 1.483-9.515 57.668 1.573z"
        ></path>
        <path
          fill="#fff"
          d="M380.13.497L246.68 71.49l41.339.898 91.439-48.528z"
        ></path>
        <path
          fill="#fff"
          d="M-.45 199.55l148.59-76.35 15.233.58.054 14.498-116.63 61.72z"
        ></path>
        <path
          fill="#cf142b"
          d="M-.674 199.78l146.56-75.53 15.425.054-.45 7.848-129.42 67.85z"
        ></path>
        <path
          fill="#cf142b"
          d="M238.15 125.41l28.757.899 112.33 60.21-.45 13.03z"
        ></path>
      </g>
      <g fill="#cf142b" transform="translate(.5 -.5)">
        <path d="M378.97 116.66l-218.89-.225 72.581-37.175 146.34.29z"></path>
        <path d="M209.21 199.54l.45-107.53-37.86 19.142.076 88.803z"></path>
      </g>
      <g transform="translate(.5 -.5)">
        <path fill="none" stroke="#000" d="M0 1H379V200H0z"></path>
      </g>
    </svg>